# xmcd
#
# Track frame offsets:
# 150
# 19290
# 34117
# 52005
# 76002
# 94552
# 111835
# 125304
# 141317
# 167202
# 181127
# 194700
#
# Disc length: 3956 seconds
#
#
# Revision: 0
# Processed by: cddbd v1.4PL0 Copyright (c) Steve Scherf et al.
# Submitted via: FreeRIP 2.52 
#
DISCID=a00f720c
DTITLE=Placebo - Without You I'm Nothing
DYEAR=1900
DGENRE=
TTITLE0=Pure Morning
TTITLE1=Brick Shithouse
TTITLE2=You Don`t Care About Us
TTITLE3=Ask For Answers
TTITLE4=Without You I`m Nothing
TTITLE5=Allergic (To Thoughts Of Mother Earth)
TTITLE6=The Crawl
TTITLE7=Every You Every Me
TTITLE8=My Sweet Prince
TTITLE9=Summer`s Gone
TTITLE10=Scared Of Girls
TTITLE11=Burger Queen
EXTD=
EXTT0=
EXTT1=
EXTT2=
EXTT3=
EXTT4=
EXTT5=
EXTT6=
EXTT7=
EXTT8=
EXTT9=
EXTT10=
EXTT11=
PLAYORDER=
